<svg width="52" height="52" viewBox="0 0 52 52" fill="none" xmlns="http://www.w3.org/2000/svg">
<path fill-rule="evenodd" clip-rule="evenodd" d="M33.754 37.6584C31.5341 39.1378 28.8678 40 26 40C18.268 40 12 33.732 12 26C12 18.268 18.268 12 26 12C28.8678 12 31.5341 12.8622 33.754 14.3416C35.5864 10.6951 38.2516 7.53909 41.5 5.12336C37.1718 1.90461 31.8083 0 26 0C11.6406 0 0 11.6406 0 26C0 40.3594 11.6406 52 26 52C31.8083 52 37.1718 50.0954 41.5 46.8766C38.2516 44.4609 35.5864 41.3049 33.754 37.6584ZM49.246 14.3416C51.008 17.8481 52 21.8082 52 26C52 30.1918 51.008 34.1519 49.246 37.6584C45.4807 35.1491 43 30.8642 43 26C43 21.1358 45.4807 16.8509 49.246 14.3416Z" fill="url(#paint0_linear_306_13)"/>
<defs>
<linearGradient id="paint0_linear_306_13" x1="26" y1="0" x2="26" y2="52" gradientUnits="userSpaceOnUse">
<stop stop-color="#3FEAE9"/>
<stop offset="1" stop-color="#7E64DE"/>
</linearGradient>
</defs>
</svg>
